<svg width="29" height="36" viewBox="0 0 29 36" xmlns="http://www.w3.org/2000/svg">
<g clip-path="url(#clip0_60292_1035)">
<path d="M14.65 0.949951H14.55L1.05005 2.34995V27.05L14.55 35.0499L27.95 27.05V2.34995L14.65 0.949951ZM26.05 13.05L14.55 6.24995V6.14995H14.45L14.35 6.04995V6.14995L2.95005 13.05V4.04995L14.45 2.84995L26.05 4.04995V13.05ZM14.45 7.74995L25.95 14.45L21.45 17.05L14.35 12.85V14.25L20.25 17.75L19.35 18.25L14.35 15.25V16.65L18.15 18.95L17.35 19.45L14.35 17.65V19.05L16.25 20.15L14.45 21.25L3.05005 14.55L14.45 7.74995ZM2.95005 16.05L14.35 22.85V23.85L6.45005 19.15V20.55L14.45 25.35V26.45L6.45005 21.75V23.15L14.45 27.95L22.55 23.05V17.85L25.95 15.85V25.85L14.45 32.75L2.95005 25.95V16.05Z" fill="black"/>
</g>
<defs>
<clipPath id="clip0_60292_1035">
<rect width="28" height="35" transform="translate(0.5 0.5)"/>
</clipPath>
</defs>
</svg>
